<?xml version="1.0" encoding="utf-8"?>
<!-- Generator: Adobe Illustrator 26.1.0, SVG Export Plug-In . SVG Version: 6.00 Build 0)  -->
<svg  version="1.1" id="Layer_1" xmlns="http://www.w3.org/2000/svg" xmlns:xlink="http://www.w3.org/1999/xlink" x="0px" y="0px"
	 viewBox="0 0 595.28 841.89" style="enable-background:new 0 0 595.28 841.89;" xml:space="preserve">
<style type="text/css" >
	.st0{fill:#FAFAFD;}
	.st1{fill:#4A76BA;}
</style>
<g>
	<path class="st0" d="M208.68,272.63c-1.65,0-3.31,0-4.96,0c0-14.66,0-29.32,0-44c59.16,0,118.32,0,177.62,0c0,14.55,0,29.12,0,44
		c-57.14,0-114.4,0-171.66,0c1.8-2.83,5.56-4.54,5.67-8.25c0.22-7.9,0.07-15.82,0.07-24c-2.43-0.31-4.44-0.54-6.8,0.18
		c0,6.02-0.14,11.84,0.05,17.65c0.12,3.82-0.17,7.37-3.37,9.93C206.56,269.83,207.62,271.23,208.68,272.63z M251.4,262.63
		c0-4.24,0.16-8.27-0.05-12.29c-0.17-3.29,2.11-3.81,4.4-3.99c2.84-0.23,2.31,2.12,2.42,3.81c0.27,4.15-0.51,8.36,0.49,12.49
		c2.18,0.16,4.12,0.59,6.43-0.5c0-3.42,0.21-6.98-0.05-10.5c-0.34-4.51,1.89-5.61,6.49-5.09c0,5.45,0,10.73,0,15.95
		c2.56,0.39,4.49,0.65,6.86-0.22c0-4.93,0.07-9.93-0.02-14.92c-0.13-7.08-2.58-8.79-9.75-7.24c-1.71,0.37-3.41,2.04-5.17,0.9
		c-6.24-4.04-12.47,2.83-18.62-1.55c0,8.66,0,15.89,0,23.16C247.08,262.63,249,262.63,251.4,262.63z M284.46,230.72
		c0,10.77,0,21.14,0,31.44c16.43,3.69,21.9-0.47,20.41-15.23c-0.02-0.16-0.02-0.33-0.04-0.49c-0.68-5.11-3.66-7.43-8.89-6.85
		c-1.46,0.16-2.9,0.49-4.81,0.82c0-1.88,0-3.49,0-5.09c0-1.76,0-3.52,0-5.64C288.67,230.07,286.76,230.37,284.46,230.72z
		 M329.85,251.07c-0.03-6.95-1.62-9.63-6.54-11.04c-8.68-2.48-14.29,1.6-14.38,10.48c-0.1,9.74,2.69,12.89,11.16,12.62
		C327.39,262.91,329.88,259.83,329.85,251.07z M354.67,251.03c0.14-3.11,0.09-6.88-3.28-9.55c-4.2-3.31-12.85-2.47-15.8,1.47
		c-3.55,4.74-2.36,16.12,2.01,18.78c0.82,0.5,1.78,0.86,2.73,1.08C349.64,264.98,354.65,261.09,354.67,251.03z M238.33,262.91
		c0.19-1.26,0.32-1.73,0.32-2.21c0.02-3.75,0.07-7.5,0.02-11.24c-0.12-8.29-2.33-10.35-10.79-9.95c-2.42,0.11-4.92,0.12-6.92,1.5
		c-0.62,4.41,1.9,4.59,5.14,4.29c2.95-0.28,6.39-0.72,5.27,4.47c-2.14,0.13-4.27,0.15-6.37,0.4c-4.03,0.47-5.09,3.37-4.92,6.69
		c0.17,3.31,1.52,6.51,5.54,6.1C229.79,262.53,233.92,262.47,238.33,262.91z M360,230.72c0,10.9,0,21.38,0,31.85
		c2.26,0.35,4.18,0.53,6.34-0.13c0-10.82,0-21.62,0-32.72C364.13,230.06,362.21,230.37,360,230.72z M380.79,240.6
		c-6.94-0.88-6.75-0.65-8.7,1.76c-5.1,6.31-4.01,12.13,0.31,18.38c2.38,3.45,5.11,1.59,9.32,2.21
		C374.61,255.19,373.97,247.88,380.79,240.6z M215.4,230.47c-2.26-0.97-4.39-1-6.75,0.02c0.2,2.18-0.53,4.28,0.64,6.65
		c1.95-0.2,4.04,0.77,6.11-0.72C215.4,234.49,215.4,232.55,215.4,230.47z"/>
	<path class="st1" d="M208.68,272.63c-1.06-1.4-2.12-2.8-3.39-4.48c3.2-2.57,3.49-6.11,3.37-9.93c-0.19-5.81-0.05-11.63-0.05-17.65
		c2.37-0.72,4.38-0.49,6.8-0.18c0,8.18,0.15,16.1-0.07,24c-0.1,3.71-3.87,5.42-5.67,8.25C209.34,272.63,209.01,272.63,208.68,272.63
		z"/>
	<path class="st1" d="M251.4,262.63c-2.4,0-4.32,0-6.58,0c0-7.27,0-14.51,0-23.16c6.15,4.38,12.38-2.49,18.62,1.55
		c1.76,1.14,3.46-0.53,5.17-0.9c7.17-1.54,9.62,0.17,9.75,7.24c0.09,5,0.02,10,0.02,14.92c-2.37,0.87-4.29,0.62-6.86,0.22
		c0-5.22,0-10.5,0-15.95c-4.6-0.51-6.83,0.58-6.49,5.09c0.26,3.53,0.05,7.09,0.05,10.5c-2.31,1.09-4.24,0.67-6.43,0.5
		c-1-4.13-0.22-8.34-0.49-12.49c-0.11-1.69,0.42-4.04-2.42-3.81c-2.29,0.18-4.57,0.7-4.4,3.99
		C251.55,254.36,251.4,258.39,251.4,262.63z"/>
	<path class="st1" d="M284.46,230.72c2.3-0.36,4.22-0.66,6.66-1.04c0,2.12,0,3.88,0,5.64c0,1.61,0,3.21,0,5.09
		c1.92-0.33,3.35-0.66,4.81-0.82c5.23-0.58,8.21,1.74,8.89,6.85c0.02,0.16,0.03,0.32,0.04,0.49c1.5,14.76-3.98,18.92-20.41,15.23
		C284.46,251.86,284.46,241.49,284.46,230.72z M291.12,256.72c6.5,0.85,7.81-0.85,6.89-8.08c-0.23-1.79-0.71-3.36-2.85-3.15
		c-1.87,0.19-4.11,0.28-4.05,3.13C291.17,251.34,291.12,254.06,291.12,256.72z"/>
	<path class="st1" d="M329.85,251.07c0.04,8.75-2.46,11.84-9.76,12.07c-8.47,0.27-11.25-2.88-11.16-12.62
		c0.09-8.88,5.69-12.96,14.38-10.48C328.23,241.45,329.82,244.13,329.85,251.07z M323.04,251.06c-0.15-1.23-0.05-2.76-0.56-4.06
		c-0.71-1.79-2.53-2.1-4.17-1.57c-3.81,1.25-2.14,4.55-2.43,7.05c-0.25,2.16-0.09,4.34,2.66,4.99c1.81,0.43,3.42-0.22,4.06-1.89
		C323.09,254.29,322.9,252.73,323.04,251.06z"/>
	<path class="st1" d="M354.67,251.03c-0.02,10.06-5.03,13.95-14.35,11.78c-0.94-0.22-1.9-0.58-2.73-1.08
		c-4.37-2.66-5.56-14.04-2.01-18.78c2.95-3.94,11.61-4.78,15.8-1.47C354.77,244.15,354.82,247.92,354.67,251.03z M347.66,251.5
		c0.03,0,0.06,0,0.08,0c0-0.81-0.01-1.62,0-2.42c0.02-2.29-0.96-3.74-3.43-3.79c-2.43-0.05-3.62,1.22-3.62,3.58
		c0,1.94-0.05,3.88,0.07,5.81c0.12,1.99,1.6,2.82,3.34,2.89c1.76,0.06,3.24-0.76,3.53-2.68C347.8,253.78,347.66,252.63,347.66,251.5
		z"/>
	<path class="st1" d="M238.33,262.91c-4.41-0.44-8.54-0.38-12.71,0.04c-4.02,0.41-5.37-2.79-5.54-6.1
		c-0.17-3.32,0.89-6.22,4.92-6.69c2.1-0.24,4.23-0.27,6.37-0.4c1.12-5.19-2.33-4.75-5.27-4.47c-3.24,0.31-5.75,0.12-5.14-4.29
		c2-1.38,4.49-1.39,6.92-1.5c8.46-0.39,10.68,1.66,10.79,9.95c0.05,3.75,0.01,7.5-0.02,11.24
		C238.65,261.18,238.52,261.65,238.33,262.91z M226.61,256.13c3.16,2.62,3.62,2.53,5.17-1.17
		C229.79,254.51,228.05,254.23,226.61,256.13z"/>
	<path class="st1" d="M360,230.72c2.21-0.35,4.13-0.66,6.34-1.01c0,11.1,0,21.91,0,32.72c-2.16,0.66-4.08,0.48-6.34,0.13
		C360,252.1,360,241.62,360,230.72z"/>
	<path class="st1" d="M380.79,240.6c-6.82,7.29-6.18,14.6,0.93,22.35c-4.21-0.63-6.94,1.23-9.32-2.21
		c-4.32-6.25-5.41-12.07-0.31-18.38C374.04,239.94,373.85,239.72,380.79,240.6z"/>
	<path class="st1" d="M215.4,230.47c0,2.08,0,4.02,0,5.95c-2.07,1.49-4.16,0.53-6.11,0.72c-1.18-2.37-0.44-4.46-0.64-6.65
		C211,229.47,213.13,229.5,215.4,230.47z"/>
	<path class="st0" d="M291.12,256.72c0-2.66,0.04-5.38-0.01-8.1c-0.06-2.85,2.18-2.94,4.05-3.13c2.14-0.21,2.62,1.36,2.85,3.15
		C298.94,255.87,297.62,257.57,291.12,256.72z"/>
	<path class="st0" d="M323.04,251.06c-0.14,1.67,0.05,3.23-0.45,4.53c-0.63,1.67-2.25,2.32-4.06,1.89c-2.75-0.65-2.9-2.84-2.66-4.99
		c0.29-2.51-1.38-5.81,2.43-7.05c1.65-0.54,3.46-0.22,4.17,1.57C322.99,248.3,322.89,249.83,323.04,251.06z"/>
	<path class="st0" d="M347.66,251.5c0,1.13,0.14,2.28-0.03,3.39c-0.29,1.92-1.77,2.74-3.53,2.68c-1.74-0.06-3.22-0.89-3.34-2.89
		c-0.12-1.93-0.07-3.88-0.07-5.81c0-2.36,1.19-3.63,3.62-3.58c2.47,0.05,3.45,1.5,3.43,3.79c-0.01,0.81,0,1.62,0,2.42
		C347.72,251.5,347.69,251.5,347.66,251.5z"/>
	<path class="st0" d="M226.61,256.13c1.43-1.9,3.18-1.63,5.17-1.17C230.24,258.66,229.78,258.75,226.61,256.13z"/>
</g>
</svg>
